<svg width="24" height="21" viewBox="0 0 24 21" fill="none" xmlns="http://www.w3.org/2000/svg">
<g filter="url(#filter0_d_4040_1851)">
<path d="M20.25 0L3.75 0C3.35218 0 2.97064 0.158035 2.68934 0.43934C2.40804 0.720644 2.25 1.10218 2.25 1.5L2.25 15.75C2.25007 15.8778 2.28281 16.0035 2.34511 16.1151C2.40741 16.2268 2.49721 16.3206 2.60597 16.3878C2.71474 16.4549 2.83887 16.4932 2.96657 16.4989C3.09427 16.5046 3.22131 16.4775 3.33563 16.4203L6 15.0881L8.66437 16.4203C8.76857 16.4725 8.88349 16.4996 9 16.4996C9.11651 16.4996 9.23143 16.4725 9.33563 16.4203L12 15.0881L14.6644 16.4203C14.7686 16.4725 14.8835 16.4996 15 16.4996C15.1165 16.4996 15.2314 16.4725 15.3356 16.4203L18 15.0881L20.6644 16.4203C20.7787 16.4775 20.9057 16.5046 21.0334 16.4989C21.1611 16.4932 21.2853 16.4549 21.394 16.3878C21.5028 16.3206 21.5926 16.2268 21.6549 16.1151C21.7172 16.0035 21.7499 15.8778 21.75 15.75L21.75 1.5C21.75 1.10218 21.592 0.720644 21.3107 0.43934C21.0294 0.158035 20.6478 0 20.25 0ZM16.5 9.75L7.5 9.75C7.30109 9.75 7.11032 9.67098 6.96967 9.53033C6.82902 9.38968 6.75 9.19891 6.75 9C6.75 8.80109 6.82902 8.61032 6.96967 8.46967C7.11032 8.32902 7.30109 8.25 7.5 8.25L16.5 8.25C16.6989 8.25 16.8897 8.32902 17.0303 8.46967C17.171 8.61032 17.25 8.80109 17.25 9C17.25 9.19891 17.171 9.38968 17.0303 9.53033C16.8897 9.67098 16.6989 9.75 16.5 9.75ZM16.5 6.75L7.5 6.75C7.30109 6.75 7.11032 6.67098 6.96967 6.53033C6.82902 6.38968 6.75 6.19891 6.75 6C6.75 5.80109 6.82902 5.61032 6.96967 5.46967C7.11032 5.32902 7.30109 5.25 7.5 5.25L16.5 5.25C16.6989 5.25 16.8897 5.32902 17.0303 5.46967C17.171 5.61032 17.25 5.80109 17.25 6C17.25 6.19891 17.171 6.38968 17.0303 6.53033C16.8897 6.67098 16.6989 6.75 16.5 6.75Z" fill="#277C78"/>
</g>
<defs>
<filter id="filter0_d_4040_1851" x="-1.75" y="0" width="27.5" height="24.4995" filterUnits="userSpaceOnUse" color-interpolation-filters="sRGB">
<feFlood flood-opacity="0" result="BackgroundImageFix"/>
<feColorMatrix in="SourceAlpha" type="matrix" values="0 0 0 0 0 0 0 0 0 0 0 0 0 0 0 0 0 0 127 0" result="hardAlpha"/>
<feOffset dy="4"/>
<feGaussianBlur stdDeviation="2"/>
<feComposite in2="hardAlpha" operator="out"/>
<feColorMatrix type="matrix" values="0 0 0 0 0 0 0 0 0 0 0 0 0 0 0 0 0 0 0.25 0"/>
<feBlend mode="normal" in2="BackgroundImageFix" result="effect1_dropShadow_4040_1851"/>
<feBlend mode="normal" in="SourceGraphic" in2="effect1_dropShadow_4040_1851" result="shape"/>
</filter>
</defs>
</svg>
